# AST/ASF file generated using VICON BodyLanguage
# -----------------------------------------------
:version 1.10
:name VICON
:units
  mass 1.0
  length 0.45
  angle deg
:documentation
   .ast/.asf automatically generated from VICON data using
   VICON BodyBuilder and BodyLanguage model FoxedUp or BRILLIANT.MOD
:root
   order TX TY TZ RX RY RZ
   axis XYZ
   position 0 0 0  
   orientation 0 0 0 
:bonedata
  begin
     id 1 
     name lhipjoint
     direction 0.567149 -0.783011 0.255413 
     length 2.28399 
     axis 0 0 0  XYZ
  end
  begin
     id 2 
     name lfemur
     direction 0.34202 -0.939693 0  
     length 7.34031  
     axis 0 0 20  XYZ
    dof rx ry rz
    limits (-160.0 20.0)
           (-70.0 70.0)
           (-60.0 70.0)
  end
  begin
     id 3 
     name ltibia
     direction 0.34202 -0.939693 0   
     length 6.9833   
     axis 0 0 20   XYZ
    dof rx
    limits (-10.0 170.0)
  end
  begin
     id 4 
     name lfoot
     direction 0.136498 -0.375025 0.91691   
     length 2.33665   
     axis -90 7.62852e-016 20   XYZ
    dof rx rz
    limits (-45.0 90.0)
           (-70.0 20.0)
  end
  begin
     id 5 
     name ltoes
     direction 1.5367e-011 -4.21617e-011 1   
     length 1.15039   
     axis -90 7.62852e-016 20   XYZ
    dof rx
    limits (-90.0 20.0)
  end
  begin
     id 6 
     name rhipjoint
     direction -0.602854 -0.758518 0.247423   
     length 2.35775  
     axis 0 0 0  XYZ 
  end
  begin
     id 7 
     name rfemur
     direction -0.34202 -0.939693 0   
     length 7.43932   
     axis 0 0 -20   XYZ
    dof rx ry rz
    limits (-160.0 20.0)
           (-70.0 70.0)
           (-70.0 60.0)
  end
  begin
     id 8 
     name rtibia
     direction -0.34202 -0.939693 0   
     length 7.11893   
     axis 0 0 -20   XYZ
    dof rx
    limits (-10.0 170.0)
 end
 begin
     id 9 
     name rfoot
     direction -0.131771 -0.362037 0.922803   
     length 2.53019  
     axis -90 -7.62852e-016 -20   XYZ
    dof rx rz
    limits (-45.0 90.0)
           (-20.0 70.0)
  end
  begin
     id 10 
     name rtoes
     direction -1.53733e-011 -4.21932e-011 1   
     length 1.24596   
     axis -90 -7.62852e-016 -20   XYZ
    dof rx
    limits (-90.0 20.0)
  end
  begin
     id 11 
     name lowerback
     direction 0.0235427 0.999023 -0.0374125   
     length 2.21768   
     axis 0 0 0   XYZ
    dof rx ry rz
    limits (-20.0 45.0)
           (-30.0 30.0)
           (-30.0 30.0)
  end
  begin
     id 12 
     name upperback
     direction 0.0302156 0.996818 -0.073759   
     length 2.20352   
     axis 0 0 0   XYZ
    dof rx ry rz
    limits (-20.0 45.0)
           (-30.0 30.0)
           (-30.0 30.0)
  end
  begin
     id 13 
     name thorax
     direction 0.0187169 0.998235 -0.0563532   
     length 2.22103   
     axis 0 0 0   XYZ
    dof rx ry rz
    limits (-20.0 45.0)
           (-30.0 30.0)
           (-30.0 30.0)
  end
  begin
     id 14 
     name lowerneck
     direction -0.119528 0.987423 0.103481   
     length 1.72948   
     axis 0 0 0   XYZ
    dof rx ry rz
    limits (-20.0 45.0)
           (-30.0 30.0)
           (-30.0 30.0)
  end
  begin
     id 15 
     name upperneck
     direction 0.248049 0.963095 -0.104496   
     length 1.74979   
     axis 0 0 0   XYZ
    dof rx ry rz
    limits (-20.0 45.0)
           (-30.0 30.0)
           (-30.0 30.0)
  end
  begin
     id 16
     name head
     direction 0.0903589 0.994284 -0.056876  
     length 1.78268  
     axis 0 0 0   XYZ
    dof rx ry rz
    limits (-20.0 45.0)
           (-30.0 30.0)
           (-30.0 30.0)
  end
  begin
     id 17 
     name lclavicle
     direction 0.946008 0.242039 -0.215608  
     length 3.80783  
     axis 0 0 0   XYZ
    dof ry rz
    limits (-20.0 10.0)
           (0.0 20.0)
  end
  begin
     id 18 
     name lhumerus
     direction 1 -4.48991e-011 -2.25695e-027   
     length 4.83125   
     axis 180 -30 -90   XYZ
    dof rx ry rz
    limits (-60.0 90.0)
           (-90.0 90.0)
           (-90.0 90.0)
  end
  begin
     id 19
     name lradius
     direction 0.999991 0.00366712 -0.00211721   
     length 3.00391   
     axis 180 -30 -90   XYZ
    dof rx
    limits (-10.0 170.0)
  end
  begin
     id 20
     name lwrist
     direction 0.999991 0.00393016 -0.00141978   
     length 1.50195   
     axis -1.00488e-014 90 90   XYZ
    dof ry
    limits (-180.0 0.0)
 end
  begin
     id 21 
     name lhand
     direction 1 -4.49123e-011 2.72098e-026   
     length 1.2717   
     axis -1.73687e-014 90 90   XYZ
    dof rx rz
    limits (-90.0 90.0)
           (-45.0 45.0)
  end
  begin
     id 22 
     name lfingers
     direction 1 -4.48678e-011 5.4479e-026   
     length 1.02528   
     axis -3.47372e-014 90 90   XYZ
    dof rx
    limits (0.0 90.0)
  end
  begin
     id 23
     name lthumb
     direction 0.707107 -6.34851e-011 0.707107   
     length 1.4721   
     axis -90 45 -1.62303e-014   XYZ
    dof rx rz
    limits (-45.0 45.0)
           (-45.0 45.0)
  end
  begin
     id 24 
     name rclavicle
     direction -0.981723 0.189447 -0.0181673   
     length 3.74989  
     axis 0 0 0   XYZ 
    dof ry rz
    limits (-10.0 20.0)
           (-20.0 0.0)
  end
  begin
     id 25 
     name rhumerus
     direction -1 -4.48985e-011 2.38206e-027  
     length 4.61118   
     axis 180 30 90   XYZ
    dof rx ry rz
    limits (-90.0 60.0)
           (-90.0 90.0)
           (-90.0 90.0)
  end
  begin
     id 26 
     name rradius
     direction -1 -4.48977e-011 7.41019e-027   
     length 2.91491   
     axis 180 30 90   XYZ
    dof rx
    limits (-10.0 170.0)
  end
  begin
     id 27 
     name rwrist
     direction -1 -4.48549e-011 1.3624e-026   
     length 1.45745   
     axis -1.00488e-014 -90 -90   XYZ
    dof ry
    limits (-180.0 0.0)
  end
  begin
     id 28
     name rhand
     direction -1 -4.49107e-011 2.72109e-026   
     length 1.30769   
     axis -1.73687e-014 -90 -90   XYZ
    dof rx rz
    limits (-90.0 90.0)
           (-45.0 45.0)
  end
  begin
     id 29
     name rfingers
     direction -1 -4.48919e-011 5.44468e-026   
     length 1.05429   
     axis -3.47372e-014 -90 -90   XYZ
    dof rx
    limits (0.0 90.0)
  end
  begin
     id 30
     name rthumb
     direction -0.707107 -6.35315e-011 0.707107   
     length 1.51376   
     axis -90 -45 1.62303e-014   XYZ
    dof rx rz
    limits (-45.0 45.0)
           (-45.0 45.0)
  end
:hierarchy
  begin
    root lhipjoint rhipjoint lowerback
    lhipjoint lfemur
    lfemur ltibia
    ltibia lfoot
    lfoot ltoes
    rhipjoint rfemur
    rfemur rtibia
    rtibia rfoot
    rfoot rtoes
    lowerback upperback
    upperback thorax
    thorax lowerneck lclavicle rclavicle
    lowerneck upperneck
    upperneck head
    lclavicle lhumerus
    lhumerus lradius
    lradius lwrist
    lwrist lhand lthumb
    lhand lfingers
    rclavicle rhumerus
    rhumerus rradius
    rradius rwrist
    rwrist rhand rthumb
    rhand rfingers
  end

#!OML:ASF X:\für Bonn\!DataBase\2005_08_11_Bastian_Final\c3d\Bastian.ASF
:FULLY-SPECIFIED
:DEGREES
16
root -0.320116 17.0504 -2.40145 560.399 79.6949 -502.357
lowerback 11.8762 -2.91378 6.18849
upperback 10.6828 -2.67272 3.24804
thorax 4.50285 -0.745935 0.191034
lowerneck 0.708873 -10.6191 -7.03358
upperneck 9.82764 -15.2872 15.4271
head 4.55742 -7.1166 5.14319
rclavicle -3.20043e-014 1.51076e-014
rhumerus -30.6398 -0.774651 -82.1741
rradius 25.9625
rwrist -0.651997
rhand -22.1806 -3.04835
rfingers 7.12502
rthumb 4.23437 -32.986
lclavicle -3.20043e-014 1.51076e-014
lhumerus -18.5305 -3.92287 90.4074
lradius 22.0584
lwrist 13.1615
lhand -12.3547 -5.96375
lfingers 7.12502
lthumb 13.7151 23.5643
rfemur -8.28008 -0.0022571 26.1238
rtibia 34.5421
rfoot -2.96345 -5.64229
rtoes -11.6336
lfemur -0.515532 -1.08675 -7.05808
ltibia 72.6552
lfoot 6.74492 -6.13069
ltoes -19.6137
17
root -0.185338 17.0697 -2.39593 561.256 79.7708 -501.393
lowerback 12.1641 -2.88695 6.41107
upperback 10.7442 -2.57953 3.30021
thorax 4.41402 -0.681561 0.124859
lowerneck 0.906415 -10.7258 -6.79949
upperneck 9.861 -15.4204 15.2814
head 4.52055 -7.18442 5.06349
rclavicle 9.93923e-016 1.35174e-014
rhumerus -30.2346 -0.578515 -82.0408
rradius 25.9958
rwrist -0.611688
rhand -22.2295 -2.98631
rfingers 7.12502
rthumb 4.18713 -32.9249
lclavicle 9.93923e-016 1.35174e-014
lhumerus -18.7828 -3.65006 90.5742
lradius 21.0488
lwrist 12.839
lhand -12.1651 -5.77251
lfingers 7.12502
lthumb 13.8979 23.7431
rfemur -7.55797 0.0068196 26.3816
rtibia 34.3884
rfoot -3.36929 -5.70013
rtoes -11.3521
lfemur -1.59522 -0.730392 -7.34853
ltibia 72.1869
lfoot 5.66672 -6.65511
ltoes -20.806
18
root -0.0516001 17.0878 -2.39192 562.212 79.8563 -500.337
lowerback 12.4591 -2.85873 6.61722
upperback 10.7903 -2.48389 3.37796
thorax 4.30751 -0.618947 0.0940019
lowerneck 1.15156 -10.8347 -6.65853
upperneck 9.86288 -15.5561 15.1739
head 4.47628 -7.2592 5.01312
rclavicle 2.18663e-014 -3.4191e-014
rhumerus -29.8732 -0.215276 -81.9106
rradius 26.0684
rwrist -0.660796
rhand -22.3015 -2.91618
rfingers 7.12502
rthumb 4.11767 -32.8561
lclavicle 2.18663e-014 -3.4191e-014
lhumerus -19.0587 -3.4098 90.7656
lradius 20.0596
lwrist 12.5222
lhand -11.9572 -5.48716
lfingers 7.12502
lthumb 14.0982 24.0146
rfemur -6.84004 -0.0116448 26.6253
rtibia 34.2179
rfoot -3.79624 -5.67006
rtoes -11.0291
lfemur -2.61412 -0.409445 -7.66764
ltibia 71.4537
lfoot 4.4802 -7.18098
ltoes -22.4327
19
root 0.0819002 17.1065 -2.3895 563.581 79.9351 -498.941
lowerback 12.6568 -2.82669 6.89425
upperback 10.8425 -2.3869 3.46994
thorax 4.26007 -0.550605 0.0355189
lowerneck 1.3471 -10.9464 -6.53019
upperneck 9.86324 -15.696 15.0774
head 4.44207 -7.33411 4.96512
rclavicle -3.12092e-014 3.02153e-014
rhumerus -29.4653 0.107267 -81.7436
rradius 26.1571
rwrist -0.700447
rhand -22.3123 -2.81233
rfingers 7.12502
rthumb 4.10723 -32.7525
lclavicle -3.12092e-014 3.02153e-014
lhumerus -19.308 -3.18911 90.9683
lradius 19.1143
lwrist 12.2438
lhand -11.7247 -5.12394
lfingers 7.12502
lthumb 14.3223 24.3621
rfemur -6.21883 -0.00476983 26.927
rtibia 34.0758
rfoot -4.23294 -5.67877
rtoes -10.6635
lfemur -3.65417 -0.0782688 -7.9401
ltibia 70.5037
lfoot 3.16105 -7.78078
ltoes -24.965
20
root 0.215005 17.122 -2.38706 564.723 80.0601 -497.774
lowerback 12.852 -2.77795 7.07717
upperback 10.9134 -2.27591 3.55449
thorax 4.23773 -0.4796 0.0194558
lowerneck 1.50615 -11.0675 -6.41169
upperneck 9.85004 -15.8487 15.0003
head 4.41354 -7.41416 4.92178
rclavicle -3.24019e-014 -2.54444e-014
rhumerus -28.9716 0.35021 -81.5382
rradius 26.1838
rwrist -0.63231
rhand -22.3016 -2.76133
rfingers 7.12502
rthumb 4.11758 -32.7013
lclavicle -3.24019e-014 -2.54444e-014
lhumerus -19.4571 -2.63572 91.1036
lradius 18.0752
lwrist 11.5921
lhand -11.4094 -4.7241
lfingers 7.12502
lthumb 14.626 24.7401
rfemur -5.62823 -0.00697368 27.1489
rtibia 33.9835
rfoot -4.69714 -5.6694
rtoes -10.5298
lfemur -4.59599 0.229094 -8.29239
ltibia 69.3596
lfoot 1.81162 -8.4116
ltoes -25.7367
21
root 0.346234 17.1316 -2.386 565.71 80.2201 -496.804
lowerback 12.9903 -2.7232 7.22169
upperback 11.0154 -2.16724 3.61387
thorax 4.28032 -0.408707 -0.00332124
lowerneck 1.59106 -11.196 -6.25102
upperneck 9.84626 -16.0107 14.9075
head 4.39656 -7.49447 4.86219
rclavicle -1.76918e-014 -1.11319e-014
rhumerus -28.4368 0.703308 -81.369
rradius 26.2782
rwrist -0.685849
rhand -22.2632 -2.67342
rfingers 7.12502
rthumb 4.15466 -32.6127
lclavicle -1.76918e-014 -1.11319e-014
lhumerus -19.5259 -2.15255 91.2139
lradius 17.0523
lwrist 10.9243
lhand -11.1139 -4.28769
lfingers 7.12502
lthumb 14.9107 25.1557
rfemur -5.12953 -0.0517312 27.2853
rtibia 33.9625
rfoot -5.17744 -5.57876
rtoes -10.1607
lfemur -5.53081 0.504215 -8.71349
ltibia 68.0836
lfoot 0.552682 -8.98243
ltoes -25.6799
22
root 0.477824 17.1394 -2.38617 567.018 80.3468 -495.489
lowerback 13.132 -2.6825 7.42819
upperback 11.1368 -2.06874 3.69478
thorax 4.34241 -0.337279 -0.0362097
lowerneck 1.653 -11.3178 -6.19327
upperneck 9.84671 -16.1719 14.8897
head 4.39864 -7.57415 4.83933
rclavicle 4.17448e-015 1.27222e-014
rhumerus -27.8552 1.00852 -81.1659
rradius 26.4008
rwrist -0.7412
rhand -22.2247 -2.68362
rfingers 7.12502
rthumb 4.19179 -32.6221
lclavicle 4.17448e-015 1.27222e-014
lhumerus -19.53 -1.45822 91.2742
lradius 15.9653
lwrist 10.045
lhand -10.7424 -3.95084
lfingers 7.12502
lthumb 15.2686 25.4656
rfemur -4.64545 -0.182156 27.4677
rtibia 34.0016
rfoot -5.68479 -5.43304
rtoes -10.054
lfemur -6.39192 0.758906 -9.06209
ltibia 66.6888
lfoot -0.422716 -9.52531
ltoes -25.4027
23
root 0.607642 17.1465 -2.38555 567.932 80.5028 -494.596
lowerback 13.2619 -2.62758 7.53542
upperback 11.2515 -1.96348 3.75329
thorax 4.40515 -0.268953 -0.0391481
lowerneck 1.7421 -11.4346 -6.18762
upperneck 9.85497 -16.3362 14.9789
head 4.4119 -7.65305 4.8581
rclavicle -5.96354e-015 4.29375e-014
rhumerus -27.2472 1.2261 -80.9326
rradius 26.4402
rwrist -0.666363
rhand -22.185 -2.61076
rfingers 7.12502
rthumb 4.2301 -32.5485
lclavicle -5.96354e-015 4.29375e-014
lhumerus -19.5042 -0.585051 91.2505
lradius 14.8179
lwrist 8.86123
lhand -10.3923 -3.70753
lfingers 7.12502
lthumb 15.6058 25.6829
rfemur -4.21276 -0.308545 27.5578
rtibia 34.0901
rfoot -6.19962 -5.3253
rtoes -10.0411
lfemur -7.25348 0.983663 -9.48779
ltibia 65.1941
lfoot -1.06614 -10.003
ltoes -24.5182
24
root 0.738045 17.1526 -2.38535 568.903 80.7014 -493.657
lowerback 13.4028 -2.56366 7.60848
upperback 11.3515 -1.84926 3.80446
thorax 4.44695 -0.199794 -0.0319728
lowerneck 1.84244 -11.54 -6.20836
upperneck 9.87324 -16.4891 15.1034
head 4.43025 -7.72565 4.89294
rclavicle 4.57205e-015 8.74653e-015
rhumerus -26.6516 1.56622 -80.7306
rradius 26.5191
rwrist -0.664636
rhand -22.1384 -2.61222
rfingers 7.12502
rthumb 4.27513 -32.5491
lclavicle 4.57205e-015 8.74653e-015
lhumerus -19.5481 0.372269 91.1723
lradius 13.74
lwrist 7.61639
lhand -10.0488 -3.56681
lfingers 7.12502
lthumb 15.9367 25.7975
rfemur -3.80164 -0.467542 27.601
rtibia 34.1907
rfoot -6.76159 -5.15291
rtoes -9.91116
lfemur -8.05406 1.21537 -9.92665
ltibia 63.5856
lfoot -1.66779 -10.3583
ltoes -23.7654
